<svg id="Bold" xmlns="http://www.w3.org/2000/svg" viewBox="0 0 511.97 511.99"><defs><style>.cls-1{fill:#d9c4a9;}</style></defs><path class="cls-1" d="M256.1,124.5A131.4,131.4,0,1,0,387.5,255.9h0A131.43,131.43,0,0,0,256.1,124.5Zm0,216.7a85.3,85.3,0,1,1,85.3-85.3h0a85.31,85.31,0,0,1-85.3,85.3Z" transform="translate(-0.04 0.01)"/><path class="cls-1" d="M361.6,1.6C314.5-.6,197.8-.5,150.7,1.6c-41.4,1.9-78,12-107.4,41.4C-6,92.3.3,158.6.3,255.9c0,99.6-5.6,164.4,42.9,212.9,49.4,49.4,116.7,42.9,212.9,42.9,98.6,0,132.7.1,167.6-13.4,47.4-18.4,83.2-60.8,86.7-136.9,2.2-47.1,2.1-163.8,0-210.9C506.1,60.6,457.9,6,361.6,1.6Zm74.5,434.6c-32.3,32.3-77.1,29.4-180.6,29.4-106.7,0-149.5,1.6-180.6-29.7-36-35.8-29.4-93.2-29.4-180.3,0-117.9-12.1-202.8,106.2-208.8,27.2-1,35.2-1.3,103.6-1.3l1,.6c113.7,0,202.9-11.9,208.2,106.4,1.2,27,1.5,35.1,1.5,103.4-.1,105.4,1.9,148.4-29.9,180.3Z" transform="translate(-0.04 0.01)"/><circle class="cls-1" cx="392.66" cy="119.31" r="30.7"/></svg>