<svg id="Bold" xmlns="http://www.w3.org/2000/svg" viewBox="0 0 512 512.01"><defs><style>.cls-1{fill:#24353f;}</style></defs><path class="cls-1" d="M256.09,124.54A131.38,131.38,0,1,0,387.46,255.91,131.36,131.36,0,0,0,256.09,124.54Zm0,216.64a85.27,85.27,0,1,1,85.26-85.27A85.24,85.24,0,0,1,256.09,341.18Z" transform="translate(0 -0.01)"/><path class="cls-1" d="M361.56,1.62c-47.11-2.2-163.78-2.09-210.93,0-41.42,1.94-78,12-107.43,41.41C-6,92.27.26,158.61.26,255.91c0,99.59-5.55,164.4,42.94,212.89,49.43,49.41,116.74,42.94,212.89,42.94,98.64,0,132.69.07,167.57-13.44,47.42-18.41,83.22-60.8,86.72-136.93,2.22-47.13,2.09-163.78,0-210.93C506.15,60.57,457.92,6.06,361.56,1.62Zm74.56,434.6c-32.28,32.28-77.06,29.4-180.65,29.4C148.8,465.62,106,467.2,74.82,435.9c-35.95-35.77-29.44-93.22-29.44-180.33,0-117.86-12.1-202.75,106.19-208.81,27.18-1,35.18-1.28,103.6-1.28l1,.64c113.68,0,202.88-11.9,208.23,106.37,1.22,27,1.5,35.09,1.5,103.4,0,105.43,2,148.46-29.74,180.33Z" transform="translate(0 -0.01)"/><circle class="cls-1" cx="392.67" cy="119.35" r="30.7"/></svg>