<svg id="Layer_1" data-name="Layer 1" xmlns="http://www.w3.org/2000/svg" viewBox="0 0 496 416"><defs><style>.cls-1{fill:#5a081e;}</style></defs><path class="cls-1" d="M468,0H28A28,28,0,0,0,0,28V324a28,28,0,0,0,28,28H190.24l-4.8,24H152a8,8,0,0,0-8,8v24a8,8,0,0,0,8,8H344a8,8,0,0,0,8-8V384a8,8,0,0,0-8-8H310.56l-4.8-24H468a28,28,0,0,0,28-28V28A28,28,0,0,0,468,0ZM336,392v8H160v-8ZM201.76,376l4.8-24h82.88l4.8,24ZM480,324a12,12,0,0,1-12,12H28a12,12,0,0,1-12-12V304H480Zm0-36H16V28A12,12,0,0,1,28,16H468a12,12,0,0,1,12,12Z"/><path class="cls-1" d="M256,312H240a8,8,0,0,0,0,16h16a8,8,0,0,0,0-16Z"/></svg>