<svg id="Layer_1" data-name="Layer 1" xmlns="http://www.w3.org/2000/svg" viewBox="0 0 987.96 1054.6"><defs><style>.cls-1{fill:#5a081e;}</style></defs><path class="cls-1" d="M912.84,527.14c-7,0-12.7,5-12.7,11s5.7,11,12.7,11h46.79v33.19a11,11,0,0,0,22,0V538.14a11,11,0,0,0-11-11Z" transform="translate(2.73)"/><path class="cls-1" d="M970.73,596.83a14.51,14.51,0,0,1-14.5-14.5V552.74H912.94c-8.9,0-16.2-6.5-16.2-14.5s7.3-14.5,16.2-14.5h57.79a14.51,14.51,0,0,1,14.5,14.5v44.19A14.49,14.49,0,0,1,970.73,596.83Zm-57.79-66.19c-5,0-9.2,3.5-9.2,7.5s4.2,7.5,9.2,7.5h50.29v36.59a7.5,7.5,0,0,0,15,0h0V538a7.49,7.49,0,0,0-7.5-7.5H912.94Z" transform="translate(2.73)"/><path class="cls-1" d="M551.26,393.55v44.09a11,11,0,0,0,22,0V393.55a11,11,0,1,0-22,0Z" transform="translate(2.73)"/><path class="cls-1" d="M562.26,452.14a14.51,14.51,0,0,1-14.5-14.5V393.55a14.5,14.5,0,1,1,29,0v44.09A14.51,14.51,0,0,1,562.26,452.14Zm0-66.09a7.49,7.49,0,0,0-7.5,7.5v44.09a7.5,7.5,0,0,0,15,0h0V393.55A7.49,7.49,0,0,0,562.26,386.05Z" transform="translate(2.73)"/><path class="cls-1" d="M562.26,279.26l42.9,42.89a11,11,0,0,1,0,15.6,10.92,10.92,0,0,1-15.5,0l-16.4-16.2v27.9a11,11,0,1,1-22,0v-27.9l-16.2,16.2a11.17,11.17,0,0,1-15.7,0,11,11,0,0,1,0-15.6h0Z" transform="translate(2.73)"/><path class="cls-1" d="M562.26,364a14.51,14.51,0,0,1-14.5-14.5V330l-10.2,10.2a14.57,14.57,0,1,1-21-20.2l.3-.3,45.4-45.39,45.4,45.39a14.55,14.55,0,0,1-.1,20.6,14.39,14.39,0,0,1-20.4-.1l-10.3-10.3v19.5A14.68,14.68,0,0,1,562.26,364Zm-7.5-50.9v36.4a7.5,7.5,0,1,0,15,0h0v-36.4l22.3,22.1a7.54,7.54,0,0,0,10.6,0h0a7.55,7.55,0,0,0,2.2-5.4,7.34,7.34,0,0,0-2.1-5.2l-40.5-40.3-40.4,40.4a7.54,7.54,0,0,0,0,10.6h0a7.67,7.67,0,0,0,10.7,0Z" transform="translate(2.73)"/><path class="cls-1" d="M503,998.1a11,11,0,1,1,0-22c37.19,0,60-48.5,60.29-49a11,11,0,1,1,20,9.2C582.06,938.91,554.06,998.1,503,998.1Z" transform="translate(2.73)"/><path class="cls-1" d="M503,1001.6a14.5,14.5,0,1,1,0-29h0c34.19,0,56.19-45,57.09-46.9a14.54,14.54,0,0,1,26.4,12.2C585.16,940.41,556.16,1001.6,503,1001.6Zm70.29-77.39a7.45,7.45,0,0,0-6.8,4.4c-2.5,5.3-25.5,51-63.49,51a7.5,7.5,0,1,0,0,15h0c48.79,0,76-57.29,77.09-59.79a7.57,7.57,0,0,0-3.7-10A7.79,7.79,0,0,0,573.26,924.21Z" transform="translate(2.73)"/><path class="cls-1" d="M477.57,598.83a10.23,10.23,0,0,0-4.2.9,9.44,9.44,0,0,0,.3-.9Z" transform="translate(2.73)"/><path class="cls-1" d="M467.67,605.83l2.4-7.3a1.42,1.42,0,0,0,.2-.6c0-.2.1-.2.1-.2l.8-2.4h6.4v7a6.71,6.71,0,0,0-2.8.6Z" transform="translate(2.73)"/><path class="cls-1" d="M473.77,598.83a9.44,9.44,0,0,0-.3.9,9.9,9.9,0,0,1,4.2-.9Z" transform="translate(2.73)"/><path class="cls-1" d="M467.67,605.83l2.4-7.3a1.85,1.85,0,0,0,.2-.7.35.35,0,0,1,.1-.2l.8-2.4h6.4v7a6.71,6.71,0,0,0-2.8.6Z" transform="translate(2.73)"/><path class="cls-1" d="M496.47,600c4.5-15.9,3.8-30-2.2-42.09-13.5-27.6-49.9-38-81.9-47.1-13.9-4-27-7.7-36-12.2-35.19-17.9-53.89-50.9-59.09-103.69-4.7-47.4-12.8-92.4-59.5-122.19-29.8-19-63.59-22.1-96.39-25.1-20.1-1.9-39.2-3.8-57.1-8.9-58.39-16.9-84.19-68.4-81-161.89a11.06,11.06,0,0,0-10.7-11.4A10.94,10.94,0,0,0,1.2,75.87v.2C-.1,114.27-4,230.36,98.19,260c20.1,5.9,41,7.8,61.3,9.7,31.4,3,61.3,5.7,86.59,21.79,38.4,24.5,44.9,60.8,49.3,105.8,5.9,60.09,29.1,99.79,71,121.09,10.79,5.5,24.89,9.6,39.89,13.9,27.6,7.8,58.9,16.8,68.2,35.49,4.1,8.3,3.9,18.4-.8,31.2h3.9a10.23,10.23,0,0,0-4.2.9,9.44,9.44,0,0,0,.3-.9c-84.6.7-153.19,69.7-153.19,154.39V896.71c0,85.2,69.29,154.39,154.39,154.39h2.7c85.19,0,154.39-69.29,154.39-154.39V753.12A154.5,154.5,0,0,0,496.47,600Zm-7.8,21.3A132.45,132.45,0,0,1,608.76,735.72c-23.3-9.3-67.7-24-120.09-25.9Zm-22.1-.1v89.09c-64.1,5.4-103,24-123.89,37.8C345.28,680.33,399.17,625.43,466.57,621.23ZM610,896.61A132.55,132.55,0,0,1,477.57,1029h-2.7c-72.9,0-132.39-59.29-132.39-132.39V776.42c9.8-9.2,49-39.6,135-44.8h.7c61.59.1,114.29,21,131.69,28.7Z" transform="translate(2.73)"/><path class="cls-1" d="M477.57,1054.6h-2.7c-87.1,0-157.89-70.79-157.89-157.89V753.22c0-85.59,69-155.89,154.19-157.89,3.5-10.7,3.5-19.3.1-26.2-8.6-17.39-39.1-26.09-66-33.69-14.4-4.1-29.3-8.4-40.59-14.1-43.1-21.9-67-62.4-72.9-123.89-4.3-44-10.6-79.5-47.7-103.2C219.69,278.66,190.49,276,159.59,273h-.5c-19.4-1.8-41.3-3.8-62-9.8-44.79-13-74.89-43.6-89.69-91C-4.3,134-3,94.67-2.3,75.77a14.41,14.41,0,0,1,14.8-14h.2a14.58,14.58,0,0,1,14.1,14.9c-3.1,91.79,21.8,142.09,78.49,158.49,18.1,5.2,37.6,7.1,56.5,8.8l.6.1c33,3.1,67,6.3,97.29,25.6,47.9,30.59,56.2,76.49,61.1,124.79C325.88,446,344,478.14,378,495.34c8.6,4.4,21.6,8.1,35.3,12l.2.1c32.7,9.4,69.7,20,83.8,48.9,5.9,11.89,7,25.59,3.5,40.69,77,11.3,134.59,77.7,134.69,156V896.51C635.56,983.71,564.66,1054.6,477.57,1054.6Zm-8.7-452.17c-80.3,3.2-144.79,69.9-144.79,150.79V896.61c0,83.2,67.69,150.89,150.89,150.89h2.7c83.19,0,150.89-67.69,150.89-150.89V753.12c-.1-76.09-57.1-140.49-132.49-149.59L492,603l1.1-3.9c4.2-15,3.6-28.3-2-39.59-12.8-26.1-48.2-36.3-79.5-45.2l-.2-.1c-14.1-4-27.4-7.8-36.6-12.5-36.29-18.4-55.69-52.3-61-106.49-4.6-46.5-12.6-90.7-57.9-119.59-28.9-18.4-62.09-21.5-94.19-24.6l-.6-.1c-19.2-1.8-39-3.6-57.8-9-30.49-8.8-52-26.5-65.79-54-13.6-27.2-19.4-63.59-17.8-111.49a7.49,7.49,0,0,0-7.3-7.7h-.1a7.39,7.39,0,0,0-7.7,7.1h0C3.3,113.37-.7,227.46,99,256.26c20,5.8,41.6,7.8,60.7,9.6h.5c31.8,3,61.8,5.9,87.59,22.29,39.8,25.4,46.4,62.5,50.9,108.4,5.7,59,28.4,97.59,69.09,118.39,10.7,5.4,25.2,9.6,39.3,13.7,28.3,8,60.4,17.2,70.3,37.29,4,8.1,4.3,17.7.9,29.2h0l-.2.7a22.5,22.5,0,0,1-.8,2.4v3.9a6.71,6.71,0,0,0-2.8.6l-7.1,3Zm8.7,430.07h-2.7c-74.9,0-135.89-61-135.89-135.89V774.92l1.1-1c10.1-9.4,49.69-40.5,137.19-45.7h.9c61.39.1,113.49,20.3,133.09,29l2.1.9V896.71C613.46,971.51,552.56,1032.5,477.57,1032.5ZM346.08,777.92V896.61A129,129,0,0,0,475,1025.5h2.7A129,129,0,0,0,606.56,896.61v-134c-20.6-8.9-70.2-27.4-128.19-27.5h-.5C395.67,740.12,357.38,767.92,346.08,777.92Zm-7.1-23.1.3-6.8A136,136,0,0,1,466.47,617.73l3.7-.2v96.09l-3.2.3c-62.4,5.3-100.89,23.2-122.19,37.3ZM463.07,625A128.22,128.22,0,0,0,346.58,741.62c22.49-13.6,59.69-29.2,116.49-34.4Zm150,116.09-5.5-2.2c-22.1-8.8-66.9-23.8-119-25.7l-3.4-.1V617.53l3.8.3A136.07,136.07,0,0,1,612.36,735.22Zm-120.89-34.7c45.69,2.1,85.29,13.6,112.19,23.8-10-55.39-56-98.69-112.19-105.09v81.29Z" transform="translate(2.73)"/><path class="cls-1" d="M821.74,742.22H777.65a11,11,0,1,0,0,22h44.09a11,11,0,0,0,0-22Z" transform="translate(2.73)"/><path class="cls-1" d="M821.74,767.82H777.65a14.55,14.55,0,0,1,0-29.1h44.09a14.55,14.55,0,0,1,0,29.1Zm-44.09-22.1a7.55,7.55,0,0,0,0,15.1h44.09a7.55,7.55,0,0,0,0-15.1Z" transform="translate(2.73)"/><path class="cls-1" d="M733.55,742.22h-44.1a11,11,0,0,0,0,22h44.1a11,11,0,0,0,0-22Z" transform="translate(2.73)"/><path class="cls-1" d="M733.55,767.82h-44.1a14.55,14.55,0,0,1,0-29.1h44.1a14.6,14.6,0,0,1,14.2,14.9A14.81,14.81,0,0,1,733.55,767.82Zm-44.2-22.1a7.55,7.55,0,0,0,0,15.1h44.1a7.55,7.55,0,0,0,0-15.1Z" transform="translate(2.73)"/><path class="cls-1" d="M970.73,615.33a11,11,0,0,0-11,11v44.2a11,11,0,0,0,22,0v-44.1a11,11,0,0,0-11-11.1Z" transform="translate(2.73)"/><path class="cls-1" d="M970.73,685a14.51,14.51,0,0,1-14.5-14.5v-44.1a14.5,14.5,0,1,1,29,0h0v44.1A14.51,14.51,0,0,1,970.73,685Zm0-66.2a7.49,7.49,0,0,0-7.5,7.5v44.1a7.5,7.5,0,0,0,15,0h0v-44.1A7.55,7.55,0,0,0,970.73,618.83Z" transform="translate(2.73)"/><path class="cls-1" d="M970.73,700.83a11,11,0,0,0-11,11v44.1a11,11,0,1,0,22,0v-44.1A11.09,11.09,0,0,0,970.73,700.83Z" transform="translate(2.73)"/><path class="cls-1" d="M970.73,770.52a14.51,14.51,0,0,1-14.5-14.5v-44.1a14.5,14.5,0,0,1,29,0h0V756A14.51,14.51,0,0,1,970.73,770.52Zm0-66.2a7.49,7.49,0,0,0-7.5,7.5V756a7.5,7.5,0,0,0,15,0h0v-44.1a7.58,7.58,0,0,0-7.5-7.6Z" transform="translate(2.73)"/><path class="cls-1" d="M880,142.46a11,11,0,0,0-11,11v44.1a11,11,0,0,0,22,0v-44.1A11,11,0,0,0,880,142.46Z" transform="translate(2.73)"/><path class="cls-1" d="M880,212.16a14.51,14.51,0,0,1-14.5-14.5v-44.1a14.5,14.5,0,0,1,29,0h0v44.1A14.51,14.51,0,0,1,880,212.16Zm0-66.2a7.49,7.49,0,0,0-7.5,7.5v44.1a7.5,7.5,0,0,0,15,0h0v-44.1A7.55,7.55,0,0,0,880,146Z" transform="translate(2.73)"/><path class="cls-1" d="M880,228a11,11,0,0,0-11,11v44.09a11,11,0,0,0,22,0V239A11,11,0,0,0,880,228Z" transform="translate(2.73)"/><path class="cls-1" d="M880,297.65a14.51,14.51,0,0,1-14.5-14.5V239.06a14.5,14.5,0,1,1,29,0v44A14.53,14.53,0,0,1,880,297.65Zm0-66.19a7.49,7.49,0,0,0-7.5,7.5v44.09a7.5,7.5,0,0,0,15,0V239a7.55,7.55,0,0,0-7.5-7.5Z" transform="translate(2.73)"/><path class="cls-1" d="M863.14,524.34H819a11,11,0,0,0,0,22h44.1a11,11,0,0,0,0-22Z" transform="translate(2.73)"/><path class="cls-1" d="M863.14,549.94H819a14.5,14.5,0,0,1,0-29h44.1a14.32,14.32,0,0,1,14.5,14.2v.3A14.51,14.51,0,0,1,863.14,549.94ZM819,527.84a7.47,7.47,0,0,0-7.5,7.4v.2a7.49,7.49,0,0,0,7.5,7.5h44.1a7.5,7.5,0,0,0,0-15h0Z" transform="translate(2.73)"/><path class="cls-1" d="M774.85,524.34h-44.1a11,11,0,0,0,0,22h44.1a11,11,0,0,0,0-22Z" transform="translate(2.73)"/><path class="cls-1" d="M774.85,549.94h-44.1a14.5,14.5,0,0,1,0-29h44.1a14.37,14.37,0,0,1,14.49,14.2v.3A14.38,14.38,0,0,1,774.85,549.94Zm-44.1-22.1a7.47,7.47,0,0,0-7.5,7.4v.2a7.49,7.49,0,0,0,7.5,7.5h44.1a7.5,7.5,0,0,0,0-15Z" transform="translate(2.73)"/><path class="cls-1" d="M686.65,524.34H642.56a11,11,0,0,0,0,22h44.09a11,11,0,0,0,0-22Z" transform="translate(2.73)"/><path class="cls-1" d="M686.65,549.94H642.56a14.5,14.5,0,0,1,0-29h44.09a14.38,14.38,0,0,1,14.5,14.2v.3A14.51,14.51,0,0,1,686.65,549.94Zm-44.09-22.1a7.32,7.32,0,0,0-7.5,7.3v.2a7.49,7.49,0,0,0,7.5,7.5h44.09a7.5,7.5,0,0,0,0-15Z" transform="translate(2.73)"/><path class="cls-1" d="M891,107.77c0,7-5,12.7-11,12.7s-11-5.7-11-12.7V61h-33.2a11,11,0,0,1,0-22h44.1a11,11,0,0,1,11,11Z" transform="translate(2.73)"/><path class="cls-1" d="M880,124c-8,0-14.5-7.3-14.5-16.2V64.47h-29.6a14.5,14.5,0,0,1,0-29H880A14.51,14.51,0,0,1,894.54,50v57.8C894.54,116.67,888,124,880,124Zm-44.2-81.6a7.5,7.5,0,0,0,0,15h36.6v50.3c0,5,3.5,9.2,7.5,9.2s7.5-4.2,7.5-9.2V50a7.49,7.49,0,0,0-7.5-7.5Z" transform="translate(2.73)"/><path class="cls-1" d="M551.66,479.14c0-7,5-12.7,11-12.7s11,5.7,11,12.7v46.8h33.1a11,11,0,0,1,0,22h-44.1a11,11,0,0,1-11-11Z" transform="translate(2.73)"/><path class="cls-1" d="M606.76,551.44h-44.1a14.51,14.51,0,0,1-14.5-14.5v-57.8c0-8.9,6.5-16.2,14.5-16.2s14.6,7.3,14.6,16.2v43.3h29.6a14.5,14.5,0,1,1-.1,29Zm-44.1-81.5c-4.1,0-7.5,4.2-7.5,9.2v57.8a7.49,7.49,0,0,0,7.5,7.5h44.1a7.5,7.5,0,0,0,0-15h-36.5v-50.3c0-5-3.5-9.2-7.6-9.2Z" transform="translate(2.73)"/><path class="cls-1" d="M791.74,38.87H747.65a11,11,0,0,0,0,22h44.09a11,11,0,0,0,0-22Z" transform="translate(2.73)"/><path class="cls-1" d="M791.74,64.47H747.65a14.5,14.5,0,0,1,0-29h44.09a14.5,14.5,0,0,1,0,29Zm-44.09-22.1a7.5,7.5,0,0,0,0,15h44.09a7.5,7.5,0,0,0,0-15Z" transform="translate(2.73)"/><path class="cls-1" d="M703.55,38.87h-44.1a11,11,0,0,0,0,22h44.1a11,11,0,0,0,0-22Z" transform="translate(2.73)"/><path class="cls-1" d="M703.55,64.47h-44.1a14.5,14.5,0,0,1,0-29h44.1a14.5,14.5,0,0,1,0,29Zm-44.2-22.1a7.5,7.5,0,0,0,0,15h44.1a7.5,7.5,0,0,0,0-15Z" transform="translate(2.73)"/><path class="cls-1" d="M615.26,38.87h-44.1a11,11,0,0,0,0,22h44.1a11,11,0,0,0,0-22Z" transform="translate(2.73)"/><path class="cls-1" d="M615.26,64.47h-44.1a14.5,14.5,0,0,1,0-29h44.1a14.5,14.5,0,0,1,0,29Zm-44.1-22.1a7.5,7.5,0,0,0,0,15h44.1a7.5,7.5,0,0,0,0-15Z" transform="translate(2.73)"/><path class="cls-1" d="M527.06,38.87H483a11,11,0,0,0,0,22h44.09a11,11,0,0,0,0-22Z" transform="translate(2.73)"/><path class="cls-1" d="M527.06,64.47H483a14.5,14.5,0,0,1,0-29h44.09a14.5,14.5,0,0,1,0,29Zm-44.19-22.1a7.5,7.5,0,0,0,0,15H527a7.5,7.5,0,0,0,0-15Z" transform="translate(2.73)"/><path class="cls-1" d="M438.77,38.87h-44.1a11,11,0,0,0,0,22h44.1a11,11,0,0,0,0-22Z" transform="translate(2.73)"/><path class="cls-1" d="M438.77,64.47h-44.1a14.5,14.5,0,0,1,0-29h44.1a14.5,14.5,0,0,1,0,29Zm-44.1-22.1a7.5,7.5,0,0,0,0,15h44.1a7.5,7.5,0,0,0,0-15Z" transform="translate(2.73)"/><path class="cls-1" d="M936,753.22l-42.89,42.9a10.92,10.92,0,0,1-15.5,0,11,11,0,0,1,0-15.6h0l16.2-16.3h-27.9a11,11,0,0,1,0-22h27.9L877.54,726a11.17,11.17,0,0,1,0-15.7,10.92,10.92,0,0,1,15.5,0Z" transform="translate(2.73)"/><path class="cls-1" d="M885.44,802.82a14,14,0,0,1-10.4-4.3,14.39,14.39,0,0,1,.1-20.4l10.3-10.3h-19.5a14.55,14.55,0,0,1,0-29.1h19.5l-10.2-10.2a14.57,14.57,0,0,1,20.5-20.7l45.39,45.4-45.39,45.4A14.44,14.44,0,0,1,885.44,802.82Zm-19.6-57.1a7.55,7.55,0,0,0,0,15.1h36.4L880,783a7.54,7.54,0,0,0,0,10.6h0a7.55,7.55,0,0,0,5.4,2.2,7.34,7.34,0,0,0,5.2-2.1l40.49-40.5-40.49-40.4a7.57,7.57,0,1,0-10.6,10.8l22.2,22.2h-36.4Z" transform="translate(2.73)"/><path class="cls-1" d="M361.58,50a11,11,0,0,1-11,11H326l16,16a11,11,0,0,1,.2,15.6,11.12,11.12,0,0,1-7.9,3.3,11.4,11.4,0,0,1-7.8-3.2l-43-42.9,42.9-42.9a11,11,0,1,1,15.5,15.7L325.48,39h25A11,11,0,0,1,361.58,50Z" transform="translate(2.73)"/><path class="cls-1" d="M334.28,99.37a14.46,14.46,0,0,1-10.2-4.2l-45.5-45.5L324,4.27a14.44,14.44,0,0,1,20.5,0h0a14,14,0,0,1,4.3,10.2,14.43,14.43,0,0,1-4.3,10.4L334,35.27h16.6a14.5,14.5,0,1,1,0,29h-16.1l10,10a14.86,14.86,0,0,1-10.2,25.1Zm-45.9-49.7,40.4,40.4a7.73,7.73,0,0,0,5.4,2.2,7.09,7.09,0,0,0,5.2-2.2,7.59,7.59,0,0,0,2.3-5.3,7.25,7.25,0,0,0-2.3-5.4l-22-22h33a7.5,7.5,0,0,0,0-15h-33.5L339.28,20a7.41,7.41,0,0,0,2.3-5.4,7.26,7.26,0,0,0-2.2-5.2,7.54,7.54,0,0,0-10.6,0Z" transform="translate(2.73)"/><path class="cls-1" d="M762.45,287.05a11,11,0,0,0-11-11h-44.1a11,11,0,1,0,0,22h44.1A10.91,10.91,0,0,0,762.45,287.05Z" transform="translate(2.73)"/><path class="cls-1" d="M751.45,301.65h-44.1a14.5,14.5,0,1,1,0-29h44.1a14.5,14.5,0,1,1,0,29Zm-44.1-22.09a7.5,7.5,0,1,0,0,15h44.1a7.5,7.5,0,1,0,0-15Z" transform="translate(2.73)"/><path class="cls-1" d="M677,287.05a11,11,0,0,0-11-11H621.76a11,11,0,1,0,0,22h44.09A10.93,10.93,0,0,0,677,287.05Z" transform="translate(2.73)"/><path class="cls-1" d="M666,301.65H621.86a14.5,14.5,0,1,1,0-29H666a14.5,14.5,0,1,1,0,29Zm-44.09-22.09a7.5,7.5,0,1,0,0,15H666a7.5,7.5,0,1,0,0-15Z" transform="translate(2.73)"/><path class="cls-1" d="M850.74,287.05a11,11,0,0,0-11-11h-44.1a11,11,0,0,0,0,22h44.1A11,11,0,0,0,850.74,287.05Z" transform="translate(2.73)"/><path class="cls-1" d="M839.74,301.65h-44.1a14.5,14.5,0,0,1,0-29h44.1a14.5,14.5,0,1,1,0,29Zm-44.2-22.09a7.5,7.5,0,0,0,0,15h44.1a7.5,7.5,0,1,0,0-15Z" transform="translate(2.73)"/><path class="cls-1" d="M505.42,791.67H473.66a15.88,15.88,0,0,0,0,31.76h31.76a15.88,15.88,0,0,0,0-31.76Z" transform="translate(2.73)"/></svg>