<svg id="Layer_1" data-name="Layer 1" xmlns="http://www.w3.org/2000/svg" viewBox="0 0 673.8 509.43"><defs><style>.cls-1{fill:#d9c4a9;}</style></defs><path class="cls-1" d="M440.61,224.62l-148.86-81.3a27.34,27.34,0,0,0-40.47,23.94V328.47A27.05,27.05,0,0,0,264.6,351.9a27.16,27.16,0,0,0,27,.61l148.86-79.9a27.28,27.28,0,0,0,.17-48ZM290.77,308.19V187.71L402,248.47Z"/><path class="cls-1" d="M668.84,120.23l0-.3c-.57-5.42-6.25-53.57-29.7-78.06C612,13.06,581.27,9.56,566.49,7.88c-1.22-.14-2.35-.26-3.35-.4L562,7.36C472.89.89,338.36,0,337,0h-.24C335.43,0,200.91.89,111,7.36l-1.19.12c-1,.13-2,.25-3.16.38-14.61,1.68-45,5.19-72.19,35C12.15,67.13,5.7,114.25,5,119.55l-.07.68c-.2,2.26-5,55.89-5,109.72v50.33C0,334.12,4.76,387.75,5,390l0,.34c.57,5.32,6.25,52.6,29.59,77.1C60.07,495.29,92.3,499,109.63,501c2.74.31,5.1.58,6.71.86l1.56.21c51.43,4.89,212.68,7.3,219.52,7.39h.41c1.35,0,135.87-.88,225-7.35L564,502c1.13-.15,2.39-.29,3.78-.43,14.53-1.54,44.77-4.74,71.58-34.18,22.33-24.24,28.79-71.36,29.45-76.65l.08-.69c.2-2.25,5-55.88,5-109.72V230C673.79,176.12,669,122.49,668.84,120.23Zm-34.53,160c0,49.84-4.36,101.15-4.77,105.87-1.68,13-8.49,42.79-19.37,54.59-16.78,18.43-34,20.26-46.6,21.59-1.52.16-2.93.31-4.21.47C473.21,469,343.76,470,337.8,470c-6.69-.1-165.59-2.53-215.45-7.15-2.56-.42-5.32-.73-8.23-1.06-14.76-1.69-35-4-50.49-21.06l-.37-.39c-10.69-11.12-17.31-39-19-54.05-.31-3.56-4.78-55.49-4.78-106V230c0-49.77,4.34-101,4.77-105.84,2-15.29,8.94-43.3,19.37-54.62C80.92,50.51,99.15,48.4,111.21,47c1.15-.13,2.23-.25,3.22-.38,87.41-6.25,217.79-7.18,222.47-7.22s135,1,221.64,7.22L562,47c12.4,1.41,31.15,3.55,48.35,21.86l.16.17c10.7,11.12,17.31,39.49,19,54.85.3,3.36,4.79,55.4,4.79,106Z"/></svg>